<svg xmlns="http://www.w3.org/2000/svg" width="320" height="320" viewBox="0 0 320 320" aria-labelledby="title desc">
  <title>知与在 · Being and Knowing</title>
  <desc>Minimal flat logo for the theme "知与在 / Being and Knowing".</desc>

  <!-- 边框：给整个 320x320 画布加一个边框 -->
  <!-- <rect x="0.5" y="0.5" width="319" height="319" fill="none" stroke="#020617" stroke-width="1" rx="12" ry="12" /> -->
  <!-- 左：存在 / Being（略偏青绿色，更柔和） -->
  <circle cx="120" cy="160" r="116" fill="#14b8a6" fill-opacity=".95" />
  <!-- 右：知 / Knowing（偏紫蓝，和左边形成对称感） -->
  <circle cx="200" cy="160" r="116" fill="#6366f1" fill-opacity=".95" />

  <!-- 中心：交叠区域，略小一点，让文字更舒展 -->
  <circle cx="160.4" cy="160" r="78" fill="#020617" fill-opacity=".92" />
  <!-- <circle cx="160" cy="160" r="160" fill="#db720f" fill-opacity=".92" /> -->
  <!-- 标题：知与在 -->
  <!--<text x="160" y="160" fill="#e5e7eb" stroke="#000000" stroke-width="0.8" stroke-opacity=".35"
    font-family="system-ui, -apple-system, BlinkMacSystemFont, 'Segoe UI', 'Noto Sans SC', sans-serif" font-size="22"
    font-weight="600" paint-order="stroke fill" text-anchor="middle">
    知与在
  </text>-->


  <!-- 副标题：BEING AND KNOWING -->
  <!--<text x="160" y="185" fill="#e5e7eb" stroke="#e5e7eb" stroke-width="0.6" stroke-opacity=".35"
    font-family="system-ui, -apple-system, BlinkMacSystemFont, 'Segoe UI', sans-serif" font-size="10"
    letter-spacing="2.5" paint-order="stroke fill" text-anchor="middle">
    Knowing&amp;Being
  </text>-->

  <svg transform="translate(85, 140)" width="156" height="60" viewBox="0 0 60 35" xmlns="http://www.w3.org/2000/svg">
    <g id="svgGroup" stroke-linecap="round" fill-rule="evenodd" font-size="9pt" stroke="#e5e7eb" stroke-width="0.15mm"
      fill="#e5e7eb" style="fill: #e5e7eb; stroke: #e5e7eb; stroke-width: 0.1mm">
      <path
        d="M 5.1 0.6 L 5.6 0.1 Q 6.5 0.9 7.6 2.7 C 8.1 3.4 8.4 4.2 8.5 5 C 8.5 5.1 8.4 5.2 8.4 5.3 C 7.6 6.1 6.6 6.8 5.5 7.2 L 7.4 8.8 Q 8.2 9.1 8.9 9.4 Q 9.6 9.7 10.4 10.3 Q 9.8 10.4 8.4 10 C 8.1 9.8 7.7 9.7 7.4 9.7 C 7.1 9.7 6.7 9.8 6.5 10 L 6.3 12.7 L 5.7 11.8 C 5.7 11.6 5.8 11.3 5.8 11.1 C 5.8 10.9 5.8 10.7 5.7 10.5 C 5.3 10.3 4.8 10.2 4.4 10.3 Q 4.4 10.3 4.3 10.3 C 4.1 10.3 3.8 10.3 3.6 10.3 L 3.6 12.6 L 3.1 13.2 L 8.1 13.1 L 8.4 12.6 C 8.8 13.1 9 13.8 8.9 14.4 C 8.9 14.6 8.9 14.7 8.9 14.9 C 8.9 15 8.9 15 8.9 15.1 C 9 16.2 8.8 17.3 8.6 18.4 Q 8 15.3 8 14.1 C 8 13.9 8.1 13.8 8.1 13.6 L 5 14.2 C 4.8 15.3 4.8 16.3 4.8 17.4 Q 4.8 19.4 3.8 19.4 L 3.9 14.4 L 1.9 14.4 C 1.9 14.6 1.9 14.7 1.9 14.9 C 1.9 15.6 1.9 16.2 2 16.9 C 2 17 2 17 2 17.1 C 2 18 1.7 18.9 1.2 19.6 L 1.2 13.7 C 1.8 13.6 2.5 13.4 3 13 Q 3 13 3 12.9 L 3 12.9 C 2.9 12.3 2.8 11.6 2.7 11 C 2.7 10.8 2.7 10.7 2.7 10.5 Q 1.2 10.3 0.9 10.6 C 0.8 10.6 0.8 10.6 0.7 10.6 C 0.5 10.6 0.2 10.5 0.1 10.3 L 3 7.6 L 1 7.3 Q 0.1 6.5 0.1 5.1 C 0 4.6 0 4 0 3.5 C 0 3.2 0 2.9 0 2.6 L 0.4 2.5 L 0.7 3.3 C 1.2 3.9 1.7 4.4 2.3 4.9 C 2.7 3.9 3 2.9 3.2 1.8 C 3.2 1.7 3.2 1.7 3.2 1.6 L 3.6 1.5 L 5.5 4.7 L 6 2.2 L 5.1 0.6 Z M 55.8 0.2 L 56.1 0.1 L 56.4 1.8 L 56.8 1.8 C 57.3 1.9 57.7 2.4 57.8 2.9 L 57.8 2.9 C 57.4 3.2 56.9 3.5 56.4 3.6 C 56.1 4.3 55.9 5 55.8 5.7 L 57.4 5.4 L 58.9 5 L 59 5.2 L 56.2 8 L 56.2 8.9 C 56.7 10.7 56.9 12.6 56.9 14.5 L 56.6 16.2 C 57 16.8 57.3 17.5 57.5 18.2 L 57.2 18.3 L 56.6 17.5 L 56.5 17.5 L 55.4 19.6 L 55.3 19.3 L 55.9 17.2 L 55.8 17.2 L 54.5 18.2 L 54.5 17.9 Q 55.5 16.9 55.9 16 Q 56.3 15.1 56.4 13.5 L 56.1 13.3 L 54.8 14.6 L 54.9 14 C 55.3 13.7 55.6 13.3 55.9 12.9 Q 56.3 12.4 56.1 11.6 L 55.8 11.3 L 54.5 12.6 L 54.1 12.8 C 54.8 12.1 55.3 11.3 55.7 10.4 L 55.6 9.6 C 55.3 10.2 54.9 10.7 54.4 11.1 Q 53.8 11.7 52.9 12.1 C 53.9 11.1 54.7 10.1 55.5 8.9 L 55.5 8.3 L 54.7 8.7 L 52.3 8.7 L 52.1 8.8 L 52.3 9.8 L 52.2 11.3 L 51.8 13.6 C 52.5 14.3 52.9 15.2 52.9 16.1 C 52.9 16.1 52.9 16.2 52.9 16.2 C 52.9 17.1 52.6 18 52.1 18.8 L 51.6 18.9 C 51.3 18.1 51 17.3 50.7 16.5 C 50.7 16.4 50.6 16.3 50.6 16.2 C 50.6 16.1 50.5 16.1 50.5 16 Q 50.5 15.5 50.7 14.2 C 50.8 13.9 50.8 13.6 50.9 13.3 L 50.1 11.5 L 49.9 9.9 C 50 9.2 50.2 8.5 50.5 7.8 C 50.7 7.1 50.8 6.3 50.8 5.5 C 50.8 5.1 50.8 4.6 50.8 4.2 C 50.2 4 49.7 3.7 49.2 3.3 L 49.1 2.9 L 49.2 2.8 Q 49.6 2.8 51 2.2 L 51 1.1 L 51.4 1.2 L 51.5 2.1 C 51.6 2.1 51.6 2.1 51.7 2.1 C 52.2 2.1 52.7 2.1 53.1 1.9 L 53.1 1.3 L 53.2 0.9 L 53.6 1.3 L 53.6 2 C 54.2 1.9 54.8 1.8 55.4 1.8 C 55.5 1.8 55.7 1.8 55.8 1.8 L 55.8 0.2 Z M 26.6 0 L 26.9 1.4 Q 27.3 1.8 27.9 2.1 C 28.3 2.3 28.6 2.6 28.8 3 Q 28.1 2.7 27.6 2.4 Q 27.3 2.2 27.3 2.5 C 27.4 2.8 27.5 3.1 27.6 3.3 C 28.3 4.1 29.1 4.8 29.8 5.6 C 30.5 6.3 31.1 7.2 31.5 8.1 L 32.1 10.4 L 33.3 9.9 L 32.1 11.2 L 32.2 13.5 Q 32 14.9 32 16.6 Q 31.9 18.2 31.3 18.9 L 31.5 14.9 L 30.3 14 C 30.2 14.6 30.1 15.1 30.1 15.7 C 30.1 16.1 30.1 16.4 30.1 16.8 C 30.1 17 30.2 17.3 30.2 17.5 C 30.2 18.2 30 18.9 29.7 19.5 L 29.5 15.8 C 29.1 15.4 28.7 15 28.3 14.5 Q 27.7 13.8 27.8 13.1 L 29.4 15.4 L 29.8 12.4 C 29.2 12.4 28.6 12.5 28 12.6 C 27.8 12.6 27.6 12.6 27.4 12.6 C 27 12.6 26.7 12.6 26.3 12.5 C 25.8 13.4 25.6 14.4 25.6 15.4 Q 25.6 17.6 25.1 18.3 C 25.1 18.1 25.1 17.9 25.1 17.7 C 25.1 16.7 25.1 15.8 25.2 14.8 C 25.3 13.6 25.5 12.5 25.9 11.4 L 26.2 11.2 L 26.2 12.1 C 26.5 12.3 26.8 12.4 27.1 12.4 C 27.7 12.4 28.2 12.2 28.7 12 C 29.6 11.7 30.4 11.3 31.3 10.9 C 31.4 10.7 31.5 10.4 31.5 10.1 C 31.5 9.8 31.4 9.4 31.3 9.1 C 31.1 8.4 30.8 7.8 30.6 7.1 L 27.8 4.5 L 26.7 2.6 L 25.6 3.8 L 25.5 3.3 C 26.1 3 26.4 2.4 26.4 1.8 C 26.4 1.7 26.3 1.5 26.3 1.4 C 26.3 1.2 26.3 1 26.3 0.8 C 26.2 0.5 26.4 0.2 26.6 0 Z M 23.9 8.1 L 29 7.9 Q 29.9 8.2 30.5 8.9 Q 31 9.5 30.7 10.5 L 30.7 10.4 C 30.4 10.2 30.1 10 29.7 9.9 Q 29.2 9.9 28.5 9.9 Q 28.1 10.4 27.6 10.4 C 27.6 10.4 27.5 10.4 27.5 10.4 C 27.2 10.4 26.9 10.4 26.6 10.3 L 26.1 9.7 C 26 9.8 25.9 9.9 25.8 9.9 C 25.7 9.9 25.7 9.9 25.6 9.9 Q 25.3 9.8 24.9 9.6 L 24 8.3 L 23.9 8.1 Z M 51.6 5.7 C 51.6 5.2 51.6 4.7 51.6 4.2 C 52 4.3 52.3 4.3 52.7 4.3 C 53.1 4.3 53.4 4.3 53.8 4.2 Q 54 4.6 54.6 6.1 C 53.4 6.4 52.4 7 51.6 7.9 C 51.6 7.8 51.6 7.6 51.6 7.5 C 51.6 7.3 51.6 7 51.6 6.8 C 51.6 6.4 51.6 6.1 51.6 5.7 Z M 3.7 3.6 L 2.7 6.7 Q 4 6.7 5.3 6.1 L 3.7 3.6 Z M 4.4 7.6 L 2.7 8.9 L 2.8 9.4 C 3.3 9.4 3.7 9.4 4.2 9.4 C 4.4 9.4 4.5 9.4 4.7 9.4 C 5.2 9.5 5.6 9.3 6 9 L 4.4 7.6 Z M 51.1 8.5 C 50.8 9 50.6 9.6 50.6 10.2 C 50.6 10.3 50.6 10.3 50.6 10.4 Q 50.7 11.3 51.2 12.2 C 51.5 11.6 51.6 11 51.6 10.3 L 51.6 10.3 C 51.6 9.7 51.4 9 51.1 8.5 Z M 31.3 11.5 L 30 12.3 L 30.1 13.2 L 31.2 14.3 L 31.6 14.3 C 31.7 13.8 31.7 13.3 31.7 12.8 C 31.7 12.8 31.7 12.7 31.7 12.7 C 31.8 12.3 31.6 11.8 31.3 11.5 Z M 6 5.9 L 7.9 4.8 L 6.9 3.1 Q 6.5 3.9 6.1 4.6 C 6 4.8 5.9 5.1 5.9 5.4 C 5.9 5.6 5.9 5.7 6 5.9 Z M 26.4 8.3 C 26.3 8.5 26.3 8.7 26.3 8.9 C 26.3 9 26.3 9.1 26.3 9.2 C 26.4 9.5 26.6 9.7 26.8 10 C 27 10.1 27.3 10.1 27.5 10.1 C 27.5 10.1 27.6 10.1 27.6 10.1 C 27.8 10.1 28 10 28.2 9.9 C 28.3 9.7 28.3 9.5 28.3 9.3 C 28.3 9 28.1 8.7 27.9 8.6 C 27.5 8.4 27 8.3 26.5 8.3 C 26.5 8.3 26.4 8.3 26.4 8.3 Z M 54.9 6.8 L 54.5 6.8 C 53.8 7 53.3 7.4 52.8 7.9 Q 53.5 8 54.1 8 C 54.5 8 54.9 7.9 55.2 7.6 L 55.2 7.6 C 55.2 7.3 55.1 7 54.9 6.8 Z M 51.6 17.2 L 51.9 17 C 52 16.8 52 16.5 52 16.3 C 52 16.1 52 15.9 52 15.7 C 51.9 15.3 51.7 14.9 51.4 14.6 C 51.3 15 51.2 15.4 51.2 15.8 C 51.2 15.9 51.2 15.9 51.2 16 Q 51.2 16.6 51.6 17.2 Z M 28.6 8.3 L 28.7 9.7 L 30.3 9.6 Q 30.1 9 29.7 8.7 C 29.4 8.4 29 8.3 28.6 8.3 Z M 56.9 5.9 L 55.6 6.5 L 55.9 7.3 L 57.5 6.2 L 56.9 5.9 Z M 53.3 2.6 L 51.6 2.9 L 51.6 3.5 L 53.3 3.5 L 53.5 3.2 L 53.3 2.6 Z M 0.9 4.8 L 1 6.2 L 1.9 6.6 C 2 6.3 2.1 6 2.1 5.7 L 2.1 5.7 Q 2.1 5.5 0.9 4.8 Z M 54 2.5 L 54.2 3.4 L 55.6 2.9 L 55.8 2.4 Q 54.8 2.3 54.4 2.3 L 54 2.5 Z M 55.5 3.8 L 54.5 4 L 55.1 5.4 L 55.3 4.9 C 55.4 4.6 55.5 4.3 55.6 4 Q 55.7 3.7 55.6 3.7 C 55.6 3.7 55.5 3.8 55.5 3.8 Z M 25.6 9.6 L 26 9.5 C 26 9.2 25.9 8.9 25.8 8.7 C 25.6 8.5 25.4 8.5 25.1 8.5 C 25 8.5 25 8.5 24.9 8.5 C 24.9 8.6 24.9 8.7 24.9 8.8 C 24.9 9 25 9.1 25.1 9.2 C 25.3 9.3 25.4 9.5 25.6 9.6 Z M 50.4 3.2 L 50.5 3.5 L 51.1 3.4 L 50.6 2.9 L 50.4 3.2 Z M 57.1 2.5 L 56.5 2.5 L 56.5 2.8 L 57.1 2.8 L 57.1 2.5 Z" />
    </g>
  </svg>
  <!--<svg transform="translate(50, 180)" width="156" height="50" viewBox="0 0 50 70" xmlns="http://www.w3.org/2000/svg">
    <g id="svgGroup" stroke-linecap="round" fill-rule="evenodd" font-size="9pt" stroke="#e5e7eb" stroke-width="0.15mm"
      fill="#e5e7eb" style="stroke:#e5e7eb;stroke-width:0.15mm;fill:#e5e7eb">
      <path
        d="M 26.004 14.86 L 25.984 14.86 Q 25.924 14.86 25.854 14.82 A 0.092 0.092 0 0 1 25.8 14.77 A 0.014 0.014 0 0 1 25.804 14.76 Q 26.144 14.22 26.454 13.68 Q 26.764 13.14 27.024 12.6 Q 27.244 12.18 27.504 11.71 Q 27.764 11.24 28.104 10.92 Q 28.444 10.6 28.884 10.6 Q 29.084 10.6 29.344 10.7 Q 29.624 10.82 29.624 11.24 Q 29.624 11.46 29.544 11.78 Q 29.464 12.1 29.324 12.5 Q 29.844 11.76 30.424 11.23 Q 31.004 10.7 31.484 10.7 Q 32.244 10.7 32.244 11.42 Q 32.244 11.86 31.984 12.5 Q 31.904 12.72 31.694 13.19 Q 31.484 13.66 31.274 14.23 Q 31.064 14.8 30.904 15.32 Q 30.744 15.84 30.744 16.18 Q 30.744 16.54 30.964 16.54 Q 31.104 16.54 31.334 16.41 Q 31.564 16.28 31.884 15.98 Q 32.464 15.46 32.974 14.66 A 29.718 29.718 0 0 0 33.793 13.259 A 5.326 5.326 0 0 1 35.144 11.31 Q 35.964 10.6 36.644 10.6 Q 37.224 10.6 37.434 10.94 Q 37.644 11.28 37.644 11.78 Q 37.644 12.3 37.474 12.87 Q 37.304 13.44 37.104 13.84 Q 36.864 14.34 36.604 14.78 Q 36.344 15.22 36.064 15.58 Q 36.244 15.74 36.504 15.74 Q 36.904 15.74 37.294 15.36 Q 37.684 14.98 38.034 14.42 Q 38.384 13.86 38.654 13.34 Q 38.924 12.82 39.064 12.56 A 0.107 0.107 0 0 1 39.121 12.507 A 40.725 40.725 0 0 0 39.124 12.5 Q 39.324 12.08 39.574 11.64 Q 39.824 11.2 40.154 10.9 Q 40.484 10.6 40.924 10.6 Q 41.144 10.6 41.404 10.7 Q 41.744 10.82 41.744 11.34 Q 41.744 12.08 41.004 13.82 Q 40.644 14.66 40.474 15.23 Q 40.304 15.8 40.304 16.12 Q 40.304 16.5 40.564 16.5 Q 40.844 16.5 41.464 15.98 Q 41.984 15.52 42.464 14.85 Q 42.944 14.18 43.484 13.06 Q 43.644 11.76 43.964 11.26 Q 44.284 10.76 44.544 10.76 Q 44.724 10.76 44.854 10.94 Q 44.984 11.12 44.984 11.4 Q 44.984 11.76 44.734 12.36 Q 44.484 12.96 44.124 13.82 Q 43.804 14.56 43.644 15.1 Q 43.484 15.64 43.484 15.98 Q 43.484 16.52 43.864 16.52 Q 44.244 16.52 44.964 15.98 Q 45.604 15.5 45.914 15.03 Q 46.224 14.56 46.324 14.36 Q 46.244 14.04 46.244 13.4 Q 46.244 13.22 46.254 13.03 Q 46.264 12.84 46.284 12.7 Q 46.384 11.66 46.804 11.13 Q 47.224 10.6 47.564 10.6 Q 47.984 10.6 47.984 11.16 Q 47.984 11.48 47.804 11.99 Q 47.624 12.5 47.374 13.02 Q 47.124 13.54 46.914 13.93 Q 46.704 14.32 46.624 14.42 L 46.694 14.65 Q 46.764 14.88 46.914 15.11 Q 47.064 15.34 47.324 15.34 Q 47.624 15.34 47.914 15 A 4.9 4.9 0 0 0 48.019 14.87 A 0.017 0.017 0 0 1 48.024 14.86 A 11.523 11.523 0 0 0 48.513 14.102 A 531.751 531.751 0 0 1 48.866 13.464 A 40.997 40.997 0 0 0 49.344 12.54 Q 49.544 12.12 49.794 11.67 Q 50.044 11.22 50.384 10.91 Q 50.724 10.6 51.164 10.6 Q 51.364 10.6 51.624 10.7 Q 51.924 10.82 51.924 11.22 Q 51.924 11.42 51.854 11.69 Q 51.784 11.96 51.664 12.3 Q 51.404 12.98 51.094 13.67 Q 50.784 14.36 50.524 15.06 Q 50.324 15.6 50.324 16.02 Q 50.324 16.48 50.624 16.48 Q 50.904 16.48 51.484 15.98 A 6.189 6.189 0 0 0 52.5 14.771 A 0.092 0.092 0 0 1 52.5 14.77 A 0.014 0.014 0 0 1 52.504 14.76 A 30.91 30.91 0 0 0 52.824 14.241 A 30.8 30.8 0 0 0 53.552 12.947 A 16.867 16.867 0 0 0 53.724 12.6 Q 53.944 12.18 54.204 11.71 Q 54.464 11.24 54.804 10.92 Q 55.144 10.6 55.584 10.6 Q 55.784 10.6 56.044 10.7 Q 56.324 10.82 56.324 11.24 Q 56.324 11.46 56.244 11.78 Q 56.164 12.1 56.024 12.5 Q 56.544 11.76 57.124 11.23 Q 57.704 10.7 58.184 10.7 Q 58.944 10.7 58.944 11.42 Q 58.944 11.86 58.684 12.5 Q 58.604 12.72 58.394 13.19 Q 58.184 13.66 57.974 14.23 Q 57.764 14.8 57.604 15.32 Q 57.444 15.84 57.444 16.18 Q 57.444 16.54 57.664 16.54 Q 57.804 16.54 58.034 16.41 Q 58.264 16.28 58.584 15.98 Q 59.164 15.46 59.674 14.66 A 29.718 29.718 0 0 0 60.141 13.883 A 8.125 8.125 0 0 1 60.384 13.28 Q 61.024 11.94 62.174 11.23 Q 63.324 10.52 64.544 10.52 L 64.874 10.52 Q 65.044 10.52 65.204 10.56 Q 65.604 10.62 65.604 10.66 Q 65.604 10.7 65.314 10.74 Q 65.024 10.78 64.884 10.78 Q 63.904 10.78 63.134 11.3 Q 62.364 11.82 61.824 12.62 Q 61.284 13.42 60.994 14.25 Q 60.704 15.08 60.704 15.68 Q 60.704 16.06 60.834 16.3 Q 60.964 16.54 61.224 16.54 Q 61.504 16.54 61.864 16.16 Q 62.224 15.78 62.564 15.23 Q 62.904 14.68 63.184 14.15 Q 63.464 13.62 63.604 13.34 L 64.464 11.54 Q 64.804 11.46 65.224 11.34 Q 65.644 11.22 65.964 11.08 Q 65.644 11.44 65.264 12.07 Q 64.884 12.7 64.604 13.32 Q 64.304 14.02 64.094 14.59 Q 63.884 15.16 63.694 15.7 Q 63.504 16.24 63.264 16.9 Q 64.224 16.3 64.794 15.71 A 7.504 7.504 0 0 0 65.728 14.526 A 3.791 3.791 0 0 1 65.684 13.96 Q 65.684 13.4 65.824 12.92 Q 66.124 11.84 66.854 10.93 Q 67.584 10.02 68.714 9.4 Q 69.844 8.78 71.324 8.62 Q 71.064 8.34 70.914 7.86 A 3.265 3.265 0 0 1 70.796 6.903 A 6.47 6.47 0 0 1 70.804 6.58 Q 70.504 6.24 70.364 5.84 Q 70.224 5.44 70.224 5.04 Q 70.224 4.28 70.664 3.57 Q 71.104 2.86 71.804 2.48 Q 72.504 2.1 73.284 2.1 A 2.965 2.965 0 0 1 73.774 2.14 A 2.574 2.574 0 0 1 74.874 2.6 Q 75.564 3.1 75.564 3.9 Q 75.564 4.12 75.504 4.34 Q 76.104 4.5 76.474 4.9 Q 76.844 5.3 76.924 5.72 Q 76.984 5.98 76.984 6.2 Q 76.984 7.14 76.234 7.67 Q 75.484 8.2 74.404 8.2 Q 73.624 8.2 72.784 7.9 Q 72.304 7.74 71.944 7.5 Q 71.584 7.26 71.324 7 Q 71.304 7.08 71.304 7.15 L 71.304 7.3 Q 71.304 7.56 71.394 7.81 Q 71.484 8.06 71.624 8.32 Q 71.664 8.4 71.724 8.46 Q 71.784 8.52 71.824 8.58 Q 72.284 8.56 72.774 8.58 Q 73.264 8.6 73.784 8.68 Q 74.564 8.8 74.564 9.24 Q 74.564 9.44 74.364 9.57 Q 74.164 9.7 73.824 9.7 Q 73.324 9.7 72.764 9.52 Q 72.204 9.34 71.744 9.02 Q 70.844 9.18 69.884 9.62 Q 68.924 10.06 68.174 10.87 Q 67.424 11.68 67.084 12.98 Q 66.944 13.48 66.944 14.04 Q 66.944 14.94 67.344 15.7 Q 67.744 16.46 68.524 16.93 Q 69.304 17.4 70.424 17.4 Q 71.624 17.4 72.674 16.92 Q 73.724 16.44 74.454 15.66 Q 75.184 14.88 75.404 14.02 Q 75.524 13.5 75.524 13.12 Q 75.524 12.18 74.934 11.79 Q 74.344 11.4 73.504 11.4 Q 72.924 11.4 72.284 11.56 Q 71.644 11.72 71.084 11.98 Q 70.284 12.36 69.834 12.99 Q 69.384 13.62 69.384 14.24 Q 69.384 14.94 69.944 15.38 Q 70.264 15.64 70.764 15.64 Q 71.164 15.64 71.554 15.47 Q 71.944 15.3 72.184 15.01 A 0.823 0.823 0 0 0 72.39 14.476 A 0.822 0.822 0 0 0 72.384 14.38 L 72.384 14.34 Q 72.384 14.14 72.544 14.14 Q 72.724 14.14 72.744 14.34 A 1.698 1.698 0 0 1 72.758 14.556 A 1.185 1.185 0 0 1 72.244 15.56 Q 71.644 16 70.864 16 Q 70.244 16 69.664 15.7 Q 69.104 15.38 68.834 14.88 Q 68.564 14.38 68.564 13.82 Q 68.564 13.02 69.034 12.26 Q 69.504 11.5 70.304 11.12 Q 70.844 10.86 71.544 10.77 Q 72.244 10.68 73.004 10.68 Q 74.224 10.68 75.474 10.82 Q 76.724 10.96 77.644 11.02 A 32.507 32.507 0 0 0 78.421 11.05 A 11.55 11.55 0 0 1 78.854 8.99 Q 79.364 7.3 80.374 5.78 Q 81.384 4.26 82.894 3.07 Q 84.404 1.88 86.404 1.19 Q 88.404 0.5 90.904 0.5 Q 93.004 0.5 94.284 1.01 Q 95.564 1.52 96.154 2.34 Q 96.744 3.16 96.744 4.14 Q 96.744 5.36 95.924 6.61 Q 95.104 7.86 93.744 8.72 Q 94.744 9.3 95.224 10.21 Q 95.704 11.12 95.704 12.12 Q 95.704 13.16 95.214 14.19 Q 94.724 15.22 93.754 16.07 Q 92.784 16.92 91.364 17.44 Q 89.944 17.96 88.104 17.96 Q 86.824 17.96 85.874 17.66 Q 84.924 17.36 84.284 16.86 Q 83.324 18.18 82.164 19.28 Q 82.984 19.84 84.054 20.16 Q 85.124 20.48 86.404 20.48 L 86.714 20.48 Q 86.864 20.48 87.024 20.46 Q 87.124 20.46 87.134 20.56 A 0.175 0.175 0 0 1 87.135 20.577 A 0.077 0.077 0 0 1 87.044 20.66 Q 86.884 20.68 86.704 20.68 L 86.364 20.68 Q 85.024 20.68 83.914 20.37 Q 82.804 20.06 81.904 19.5 Q 80.704 20.6 79.304 21.34 Q 77.904 22.08 76.304 22.34 Q 75.924 22.4 75.504 22.44 Q 75.084 22.48 74.684 22.48 Q 73.804 22.48 73.024 22.25 Q 72.244 22.02 71.764 21.48 Q 71.284 20.94 71.284 20.02 Q 71.284 19.7 71.344 19.38 Q 71.344 19.26 71.484 19.26 Q 71.604 19.26 71.604 19.36 Q 71.604 19.48 71.594 19.58 Q 71.584 19.68 71.584 19.8 Q 71.584 20.64 72.074 21.18 Q 72.564 21.72 73.344 21.98 Q 74.124 22.24 74.984 22.24 Q 75.944 22.24 76.844 21.96 Q 78.044 21.58 79.114 20.77 Q 80.184 19.96 81.104 18.92 Q 79.724 17.74 79.034 16.01 Q 78.344 14.28 78.344 12.34 A 11.55 11.55 0 0 1 78.378 11.497 A 666.708 666.708 0 0 1 77.624 11.46 Q 77.164 11.42 76.634 11.4 Q 76.104 11.38 75.524 11.38 Q 75.984 11.66 76.184 12.13 Q 76.384 12.6 76.384 13.18 Q 76.384 13.6 76.264 14.06 Q 75.964 15.2 75.024 16.04 Q 74.084 16.88 72.784 17.34 Q 71.484 17.8 70.124 17.8 Q 68.604 17.8 67.624 17.24 Q 66.644 16.68 66.164 15.8 A 3.791 3.791 0 0 1 65.789 14.841 A 7.099 7.099 0 0 1 64.794 16.02 Q 64.164 16.62 63.144 17.24 Q 62.804 18.14 62.344 19.26 Q 61.884 20.38 61.354 21.45 Q 60.824 22.52 60.244 23.32 Q 59.744 24.02 59.194 24.38 Q 58.644 24.74 58.244 24.74 Q 57.924 24.74 57.734 24.53 Q 57.544 24.32 57.544 23.9 Q 57.544 23.56 57.694 23.1 Q 57.844 22.64 58.164 22.06 Q 58.564 21.34 59.104 20.58 Q 59.644 19.82 60.244 19.14 Q 60.844 18.46 61.374 17.96 Q 61.904 17.46 62.264 17.28 Q 62.344 17.08 62.494 16.64 Q 62.644 16.2 62.814 15.71 Q 62.984 15.22 63.104 14.88 L 63.224 14.54 Q 62.944 15.04 62.594 15.57 Q 62.244 16.1 61.844 16.47 Q 61.444 16.84 60.984 16.84 Q 60.304 16.84 60.054 16.45 Q 59.804 16.06 59.804 15.52 A 4.09 4.09 0 0 1 59.884 14.76 A 30.304 30.304 0 0 1 59.754 14.97 Q 59.164 15.9 58.574 16.37 Q 57.984 16.84 57.264 16.84 Q 56.424 16.84 56.424 15.9 Q 56.424 15.54 56.564 15.04 Q 56.704 14.54 57.004 13.94 Q 57.164 13.6 57.434 13.13 Q 57.704 12.66 57.924 12.2 Q 58.144 11.74 58.144 11.48 Q 58.144 11.22 57.864 11.22 Q 57.484 11.22 57.074 11.63 Q 56.664 12.04 56.264 12.68 Q 55.864 13.32 55.504 14.02 Q 55.144 14.72 54.884 15.33 Q 54.624 15.94 54.504 16.26 Q 54.384 16.56 54.164 16.64 Q 53.944 16.72 53.694 16.72 Q 53.444 16.72 53.224 16.8 Q 53.504 16.16 53.684 15.76 Q 53.864 15.36 54.064 14.95 Q 54.264 14.54 54.544 13.84 Q 54.704 13.48 54.904 13.01 Q 55.104 12.54 55.254 12.09 Q 55.404 11.64 55.404 11.38 Q 55.404 11.08 55.204 11.08 Q 54.964 11.08 54.724 11.38 Q 54.484 11.68 54.294 12.05 Q 54.104 12.42 53.984 12.64 Q 53.684 13.22 53.384 13.78 Q 53.084 14.34 52.704 14.86 L 52.698 14.86 A 20.273 20.273 0 0 1 52.064 15.77 Q 51.224 16.84 50.164 16.84 Q 49.804 16.84 49.594 16.57 Q 49.384 16.3 49.384 15.86 Q 49.384 15.3 49.614 14.66 Q 49.844 14.02 50.154 13.37 Q 50.464 12.72 50.704 12.14 Q 50.804 11.86 50.884 11.64 Q 50.964 11.42 50.964 11.28 Q 50.964 11.08 50.784 11.08 Q 50.544 11.08 50.304 11.38 Q 50.064 11.68 49.874 12.05 Q 49.684 12.42 49.564 12.64 Q 49.264 13.22 48.914 13.84 A 14.694 14.694 0 0 1 48.62 14.341 A 42.749 42.749 0 0 0 48.544 14.48 Q 48.284 14.96 47.984 15.26 Q 47.684 15.56 47.264 15.56 Q 46.884 15.56 46.674 15.24 Q 46.464 14.92 46.424 14.72 Q 46.204 15.06 45.774 15.56 Q 45.344 16.06 44.764 16.45 Q 44.184 16.84 43.484 16.84 Q 43.044 16.84 42.854 16.58 Q 42.664 16.32 42.664 15.88 Q 42.664 15.6 42.734 15.29 Q 42.804 14.98 42.904 14.62 Q 42.284 15.6 41.554 16.22 Q 40.824 16.84 40.144 16.84 Q 39.364 16.84 39.364 16 Q 39.364 15.3 39.984 13.96 Q 40.144 13.62 40.334 13.15 Q 40.524 12.68 40.654 12.21 Q 40.784 11.74 40.784 11.44 Q 40.784 11.08 40.564 11.08 Q 40.324 11.08 40.084 11.37 Q 39.844 11.66 39.654 12.03 Q 39.464 12.4 39.344 12.62 Q 39.044 13.2 38.674 13.86 Q 38.304 14.52 37.944 15.04 L 37.934 15.05 A 0.079 0.079 0 0 1 37.893 15.061 A 5.605 5.605 0 0 1 37.384 15.62 Q 37.144 15.84 36.924 15.94 Q 36.704 16.04 36.524 16.04 Q 36.184 16.04 35.924 15.78 Q 35.544 16.28 35.144 16.56 Q 34.744 16.84 34.364 16.84 Q 33.704 16.84 33.454 16.47 Q 33.204 16.1 33.204 15.56 A 4.187 4.187 0 0 1 33.365 14.459 A 30.304 30.304 0 0 1 33.054 14.97 Q 32.464 15.9 31.874 16.37 Q 31.284 16.84 30.564 16.84 Q 29.724 16.84 29.724 15.9 Q 29.724 15.54 29.864 15.04 Q 30.004 14.54 30.304 13.94 Q 30.464 13.6 30.734 13.13 Q 31.004 12.66 31.224 12.2 Q 31.444 11.74 31.444 11.48 Q 31.444 11.22 31.164 11.22 Q 30.784 11.22 30.374 11.63 Q 29.964 12.04 29.564 12.68 Q 29.164 13.32 28.804 14.02 Q 28.444 14.72 28.184 15.33 Q 27.924 15.94 27.804 16.26 Q 27.684 16.56 27.464 16.64 Q 27.244 16.72 26.994 16.72 Q 26.744 16.72 26.524 16.8 Q 26.804 16.16 26.984 15.76 Q 27.164 15.36 27.364 14.95 Q 27.564 14.54 27.844 13.84 Q 28.004 13.48 28.204 13.01 Q 28.404 12.54 28.554 12.09 Q 28.704 11.64 28.704 11.38 Q 28.704 11.08 28.504 11.08 Q 28.264 11.08 28.024 11.38 Q 27.784 11.68 27.594 12.05 Q 27.404 12.42 27.284 12.64 Q 26.984 13.22 26.684 13.78 Q 26.384 14.34 26.004 14.86 Z M 0.004 18.66 L 0.004 18.46 Q 0.004 18.3 0.034 18.1 Q 0.064 17.9 0.184 17.9 Q 0.304 17.9 0.304 18.04 Q 0.304 18.12 0.294 18.22 Q 0.284 18.32 0.284 18.42 Q 0.284 19.34 0.814 19.88 Q 1.344 20.42 2.134 20.65 Q 2.924 20.88 3.684 20.88 Q 5.004 20.88 6.144 20.39 Q 7.284 19.9 8.254 19.08 Q 9.224 18.26 10.034 17.27 Q 10.844 16.28 11.524 15.28 Q 10.084 14.86 8.844 13.97 Q 7.604 13.08 6.854 11.8 Q 6.104 10.52 6.104 8.94 Q 6.104 7.42 6.764 6.24 Q 7.424 5.06 8.514 4.18 Q 9.604 3.3 10.914 2.71 Q 12.224 2.12 13.504 1.8 Q 14.824 1.46 16.164 1.31 Q 17.504 1.16 18.844 1.12 Q 19.324 1.08 19.804 1.08 L 20.744 1.08 Q 21.284 1.08 21.824 1.09 Q 22.364 1.1 22.884 1.1 Q 23.024 1.1 23.294 1.15 Q 23.564 1.2 23.564 1.42 Q 23.564 1.56 23.434 1.64 Q 23.304 1.72 23.184 1.72 Q 22.984 1.72 22.794 1.62 Q 22.604 1.52 22.324 1.52 Q 21.684 1.52 21.014 2.05 Q 20.344 2.58 19.684 3.45 Q 19.024 4.32 18.404 5.35 Q 17.784 6.38 17.264 7.41 Q 16.744 8.44 16.364 9.3 Q 15.984 10.16 15.764 10.64 L 15.844 10.72 Q 16.604 9.72 17.704 8.48 Q 18.804 7.24 20.114 5.96 Q 21.424 4.68 22.834 3.52 Q 24.244 2.36 25.624 1.5 Q 27.004 0.64 28.224 0.26 Q 29.084 0 30.044 0 Q 30.564 0 31.154 0.13 Q 31.744 0.26 32.274 0.55 Q 32.804 0.84 33.134 1.29 Q 33.464 1.74 33.464 2.38 Q 33.464 3.04 33.084 3.59 Q 32.704 4.14 32.114 4.58 Q 31.524 5.02 30.874 5.34 Q 30.224 5.66 29.704 5.86 Q 29.584 5.9 29.524 5.9 Q 29.344 5.9 29.344 5.78 Q 29.344 5.7 29.404 5.65 Q 29.464 5.6 29.524 5.58 Q 29.804 5.48 30.064 5.39 Q 30.324 5.3 30.584 5.2 Q 31.064 4.98 31.664 4.62 Q 32.264 4.26 32.714 3.76 Q 33.164 3.26 33.164 2.66 Q 33.164 2.18 32.874 1.85 Q 32.584 1.52 32.144 1.33 Q 31.704 1.14 31.234 1.06 Q 30.764 0.98 30.384 0.98 Q 29.884 0.98 29.364 1.06 Q 28.844 1.14 28.364 1.3 Q 27.224 1.64 25.874 2.45 Q 24.524 3.26 23.124 4.35 Q 21.724 5.44 20.404 6.65 Q 19.084 7.86 17.984 9.01 Q 16.884 10.16 16.124 11.08 Q 16.804 11.94 17.434 12.87 Q 18.064 13.8 18.724 14.7 Q 20.084 14.2 21.284 13.32 Q 22.484 12.44 23.184 11.14 Q 23.344 10.86 23.454 10.58 Q 23.564 10.3 23.664 10.02 Q 23.704 9.92 23.804 9.92 A 0.133 0.133 0 0 1 23.964 10.06 Q 23.964 10.1 23.944 10.12 Q 23.584 11.28 22.814 12.21 Q 22.044 13.14 21.024 13.81 Q 20.004 14.48 18.884 14.9 Q 19.264 15.4 19.774 16.01 Q 20.284 16.62 20.894 17.17 Q 21.504 17.72 22.174 18.07 Q 22.844 18.42 23.544 18.42 Q 24.284 18.42 24.714 18.05 Q 25.144 17.68 25.334 17.1 Q 25.524 16.52 25.524 15.88 Q 25.524 15.26 25.404 14.65 Q 25.284 14.04 25.124 13.46 L 25.124 13.4 Q 25.124 13.26 25.264 13.26 Q 25.384 13.26 25.484 13.59 Q 25.584 13.92 25.654 14.37 Q 25.724 14.82 25.754 15.21 Q 25.784 15.6 25.784 15.74 Q 25.784 17.2 25.004 18.18 Q 24.224 19.16 22.684 19.16 Q 21.464 19.16 20.514 18.6 Q 19.564 18.04 18.824 17.15 Q 18.084 16.26 17.484 15.32 Q 16.024 15.68 14.484 15.68 Q 14.104 15.68 13.724 15.65 Q 13.344 15.62 12.944 15.58 Q 11.804 17.12 10.354 18.38 Q 8.904 19.64 7.174 20.39 Q 5.444 21.14 3.424 21.14 Q 2.604 21.14 1.814 20.93 Q 1.024 20.72 0.514 20.18 Q 0.004 19.64 0.004 18.66 Z M 98.124 16.94 Q 97.264 16.94 96.904 16.35 Q 96.544 15.76 96.544 15 Q 96.544 14.54 96.644 14.1 Q 96.744 13.66 96.884 13.28 Q 97.104 12.74 97.514 12.13 Q 97.924 11.52 98.504 11.08 Q 99.084 10.64 99.764 10.64 Q 100.324 10.64 100.544 10.95 Q 100.764 11.26 100.764 11.72 L 100.764 11.87 Q 100.764 11.94 100.744 12.04 Q 100.684 12.58 100.324 13.16 Q 99.964 13.74 99.424 14.13 Q 98.884 14.52 98.264 14.52 Q 97.904 14.52 97.624 14.32 Q 97.444 15 97.444 15.56 Q 97.444 16.02 97.614 16.32 Q 97.784 16.62 98.144 16.62 Q 98.564 16.62 99.154 16.25 Q 99.744 15.88 100.434 14.98 A 13.199 13.199 0 0 0 100.766 14.501 A 11.523 11.523 0 0 0 101.234 13.71 A 40.997 40.997 0 0 0 101.765 12.697 A 13.199 13.199 0 0 0 101.844 12.52 A 0.031 0.031 0 0 1 101.863 12.5 A 15.656 15.656 0 0 1 102.294 11.67 Q 102.544 11.22 102.884 10.91 Q 103.224 10.6 103.664 10.6 Q 103.864 10.6 104.124 10.7 Q 104.424 10.82 104.424 11.22 Q 104.424 11.42 104.354 11.69 Q 104.284 11.96 104.164 12.3 Q 103.904 12.98 103.594 13.67 Q 103.284 14.36 103.024 15.06 Q 102.824 15.6 102.824 16.02 Q 102.824 16.48 103.124 16.48 Q 103.404 16.48 103.984 15.98 A 6.189 6.189 0 0 0 105 14.771 A 0.092 0.092 0 0 1 105 14.77 A 0.014 0.014 0 0 1 105.004 14.76 A 30.91 30.91 0 0 0 105.324 14.241 A 30.8 30.8 0 0 0 106.052 12.947 A 16.867 16.867 0 0 0 106.224 12.6 Q 106.444 12.18 106.704 11.71 Q 106.964 11.24 107.304 10.92 Q 107.644 10.6 108.084 10.6 Q 108.284 10.6 108.544 10.7 Q 108.824 10.82 108.824 11.24 Q 108.824 11.46 108.744 11.78 Q 108.664 12.1 108.524 12.5 Q 109.044 11.76 109.624 11.23 Q 110.204 10.7 110.684 10.7 Q 111.444 10.7 111.444 11.42 Q 111.444 11.86 111.184 12.5 Q 111.104 12.72 110.894 13.19 Q 110.684 13.66 110.474 14.23 Q 110.264 14.8 110.104 15.32 Q 109.944 15.84 109.944 16.18 Q 109.944 16.54 110.164 16.54 Q 110.304 16.54 110.534 16.41 Q 110.764 16.28 111.084 15.98 Q 111.664 15.46 112.174 14.66 A 29.718 29.718 0 0 0 112.641 13.883 A 8.125 8.125 0 0 1 112.884 13.28 Q 113.524 11.94 114.674 11.23 Q 115.824 10.52 117.044 10.52 L 117.374 10.52 Q 117.544 10.52 117.704 10.56 Q 118.104 10.62 118.104 10.66 Q 118.104 10.7 117.814 10.74 Q 117.524 10.78 117.384 10.78 Q 116.404 10.78 115.634 11.3 Q 114.864 11.82 114.324 12.62 Q 113.784 13.42 113.494 14.25 Q 113.204 15.08 113.204 15.68 Q 113.204 16.06 113.334 16.3 Q 113.464 16.54 113.724 16.54 Q 114.004 16.54 114.364 16.16 Q 114.724 15.78 115.064 15.23 Q 115.404 14.68 115.684 14.15 Q 115.964 13.62 116.104 13.34 L 116.964 11.54 Q 117.304 11.46 117.724 11.34 Q 118.144 11.22 118.464 11.08 Q 118.144 11.44 117.764 12.07 Q 117.384 12.7 117.104 13.32 Q 116.804 14.02 116.594 14.59 Q 116.384 15.16 116.194 15.7 Q 116.004 16.24 115.764 16.9 Q 116.724 16.3 117.294 15.71 Q 117.864 15.12 118.294 14.42 Q 118.724 13.72 119.204 12.82 Q 119.244 12.76 119.304 12.76 Q 119.364 12.76 119.404 12.81 Q 119.444 12.86 119.404 12.94 Q 118.864 13.94 118.394 14.68 Q 117.924 15.42 117.294 16.02 Q 116.664 16.62 115.644 17.24 Q 115.304 18.14 114.844 19.26 Q 114.384 20.38 113.854 21.45 Q 113.324 22.52 112.744 23.32 Q 112.244 24.02 111.694 24.38 Q 111.144 24.74 110.744 24.74 Q 110.424 24.74 110.234 24.53 Q 110.044 24.32 110.044 23.9 Q 110.044 23.56 110.194 23.1 Q 110.344 22.64 110.664 22.06 Q 111.064 21.34 111.604 20.58 Q 112.144 19.82 112.744 19.14 Q 113.344 18.46 113.874 17.96 Q 114.404 17.46 114.764 17.28 Q 114.844 17.08 114.994 16.64 Q 115.144 16.2 115.314 15.71 Q 115.484 15.22 115.604 14.88 L 115.724 14.54 Q 115.444 15.04 115.094 15.57 Q 114.744 16.1 114.344 16.47 Q 113.944 16.84 113.484 16.84 Q 112.804 16.84 112.554 16.45 Q 112.304 16.06 112.304 15.52 A 4.09 4.09 0 0 1 112.384 14.76 A 30.304 30.304 0 0 1 112.254 14.97 Q 111.664 15.9 111.074 16.37 Q 110.484 16.84 109.764 16.84 Q 108.924 16.84 108.924 15.9 Q 108.924 15.54 109.064 15.04 Q 109.204 14.54 109.504 13.94 Q 109.664 13.6 109.934 13.13 Q 110.204 12.66 110.424 12.2 Q 110.644 11.74 110.644 11.48 Q 110.644 11.22 110.364 11.22 Q 109.984 11.22 109.574 11.63 Q 109.164 12.04 108.764 12.68 Q 108.364 13.32 108.004 14.02 Q 107.644 14.72 107.384 15.33 Q 107.124 15.94 107.004 16.26 Q 106.884 16.56 106.664 16.64 Q 106.444 16.72 106.194 16.72 Q 105.944 16.72 105.724 16.8 Q 106.004 16.16 106.184 15.76 Q 106.364 15.36 106.564 14.95 Q 106.764 14.54 107.044 13.84 Q 107.204 13.48 107.404 13.01 Q 107.604 12.54 107.754 12.09 Q 107.904 11.64 107.904 11.38 Q 107.904 11.08 107.704 11.08 Q 107.464 11.08 107.224 11.38 Q 106.984 11.68 106.794 12.05 Q 106.604 12.42 106.484 12.64 Q 106.184 13.22 105.884 13.78 Q 105.584 14.34 105.204 14.86 L 105.198 14.86 A 20.273 20.273 0 0 1 104.564 15.77 Q 103.724 16.84 102.664 16.84 Q 102.304 16.84 102.094 16.57 Q 101.884 16.3 101.884 15.86 Q 101.884 15.3 102.114 14.66 Q 102.344 14.02 102.654 13.37 Q 102.964 12.72 103.204 12.14 Q 103.304 11.86 103.384 11.64 Q 103.464 11.42 103.464 11.28 Q 103.464 11.08 103.284 11.08 Q 103.044 11.08 102.804 11.38 Q 102.564 11.68 102.374 12.05 Q 102.184 12.42 102.064 12.64 A 37.365 37.365 0 0 1 101.975 12.812 A 10.221 10.221 0 0 1 99.974 15.9 Q 98.884 16.94 98.124 16.94 Z M 79.024 11.06 A 29.294 29.294 0 0 0 79.184 11.06 Q 80.504 11.06 81.364 10.82 Q 82.224 10.58 82.364 9.86 A 0.744 0.744 0 0 0 82.374 9.738 A 0.854 0.854 0 0 0 82.134 9.17 Q 81.844 8.84 81.484 8.82 Q 81.284 8.82 81.284 8.68 Q 81.284 8.52 81.504 8.52 Q 82.084 8.52 82.454 8.93 A 1.071 1.071 0 0 1 82.745 9.669 A 1.316 1.316 0 0 1 82.724 9.9 Q 82.624 10.56 82.124 10.91 Q 81.624 11.26 80.874 11.39 Q 80.124 11.52 79.244 11.52 A 16.624 16.624 0 0 1 78.98 11.518 A 11.834 11.834 0 0 0 78.944 12.4 Q 78.944 14.22 79.534 15.85 Q 80.124 17.48 81.344 18.62 Q 81.904 17.96 82.404 17.25 Q 82.904 16.54 83.364 15.8 Q 83.084 15.3 82.954 14.77 Q 82.824 14.24 82.824 13.7 Q 82.824 12.5 83.384 11.43 Q 83.944 10.36 84.844 9.88 Q 84.864 9.86 84.904 9.86 Q 84.964 9.86 84.994 9.93 Q 85.024 10 84.944 10.04 Q 84.084 10.5 83.554 11.51 Q 83.024 12.52 83.024 13.64 Q 83.024 14.14 83.134 14.63 Q 83.244 15.12 83.504 15.58 Q 84.264 14.34 84.924 13.12 Q 85.584 11.9 86.124 10.92 Q 87.544 8.36 88.864 6.49 Q 90.184 4.62 91.414 3.59 Q 92.644 2.56 93.744 2.56 Q 94.084 2.56 94.324 2.64 Q 94.384 2.66 94.384 2.74 A 0.085 0.085 0 0 1 94.296 2.843 A 0.194 0.194 0 0 1 94.264 2.84 Q 94.084 2.78 93.884 2.78 Q 93.164 2.78 92.324 3.48 Q 91.484 4.18 90.614 5.4 Q 89.744 6.62 88.884 8.22 Q 89.164 8.06 89.514 7.97 Q 89.864 7.88 90.264 7.88 Q 91.084 7.88 91.784 8.01 Q 92.484 8.14 93.044 8.36 Q 94.104 7.48 94.764 6.27 Q 95.424 5.06 95.424 3.9 Q 95.424 3.02 94.974 2.3 Q 94.524 1.58 93.534 1.14 Q 92.544 0.7 90.904 0.7 Q 88.524 0.7 86.614 1.38 Q 84.704 2.06 83.274 3.24 Q 81.844 4.42 80.874 5.93 Q 79.904 7.44 79.424 9.1 A 11.834 11.834 0 0 0 79.024 11.06 Z M 21.524 1.4 L 20.484 1.38 A 10.858 10.858 0 0 0 19.942 1.367 A 11.671 11.671 0 0 0 19.664 1.37 Q 19.244 1.38 18.844 1.42 Q 17.624 1.46 16.404 1.6 Q 15.184 1.74 13.984 2.06 Q 12.764 2.38 11.574 2.95 Q 10.384 3.52 9.404 4.36 Q 8.424 5.2 7.844 6.32 Q 7.264 7.44 7.264 8.86 Q 7.264 10.26 7.874 11.45 Q 8.484 12.64 9.514 13.51 Q 10.544 14.38 11.804 14.86 Q 12.504 13.8 13.124 12.68 L 14.364 10.44 Q 14.044 10.08 13.594 9.68 Q 13.144 9.28 12.644 9.01 Q 12.144 8.74 11.624 8.74 Q 11.504 8.74 11.374 8.78 Q 11.244 8.82 11.124 8.82 Q 11.044 8.82 11.044 8.74 Q 11.044 8.6 11.264 8.53 Q 11.484 8.46 11.744 8.42 Q 12.004 8.38 12.084 8.38 Q 12.844 8.38 13.544 8.78 Q 14.244 9.18 14.784 9.66 Q 15.164 8.96 15.724 8.01 Q 16.284 7.06 16.964 6.03 Q 17.644 5 18.394 4.05 Q 19.144 3.1 19.944 2.4 Q 20.744 1.7 21.524 1.4 Z M 88.004 17.76 Q 89.524 17.76 90.684 17.23 Q 91.844 16.7 92.644 15.84 Q 93.444 14.98 93.854 13.95 Q 94.264 12.92 94.264 11.9 Q 94.264 11.08 93.984 10.34 Q 93.704 9.6 93.124 9.06 Q 92.404 9.42 91.574 9.62 Q 90.744 9.82 89.864 9.82 Q 89.184 9.82 88.814 9.68 Q 88.444 9.54 88.304 9.34 Q 88.004 9.94 87.704 10.57 Q 87.404 11.2 87.124 11.86 Q 86.564 13.12 85.894 14.34 Q 85.224 15.56 84.404 16.68 Q 85.004 17.16 85.894 17.46 Q 86.784 17.76 88.004 17.76 Z M 74.244 7.78 Q 75.184 7.78 75.754 7.25 Q 76.324 6.72 76.324 6.04 Q 76.324 5.62 76.124 5.22 Q 75.924 4.82 75.364 4.66 Q 75.084 5.34 74.614 5.64 Q 74.144 5.94 73.684 5.94 Q 73.284 5.94 72.954 5.76 Q 72.624 5.58 72.624 5.3 Q 72.624 5.14 72.694 5.07 Q 72.764 5 72.844 5 Q 73.004 5 73.004 5.2 Q 73.004 5.34 73.184 5.44 Q 73.364 5.54 73.624 5.54 Q 74.004 5.54 74.434 5.32 Q 74.864 5.1 75.064 4.56 Q 74.764 4.5 74.424 4.5 Q 73.764 4.5 73.114 4.72 Q 72.464 4.94 72.004 5.37 Q 71.544 5.8 71.404 6.48 Q 71.624 6.82 71.994 7.05 Q 72.364 7.28 72.904 7.5 Q 73.264 7.64 73.604 7.71 Q 73.944 7.78 74.244 7.78 Z M 58.304 24.46 Q 58.544 24.46 58.914 24.1 Q 59.284 23.74 59.744 22.94 Q 60.124 22.26 60.514 21.45 Q 60.904 20.64 61.244 19.86 Q 61.584 19.08 61.824 18.5 Q 62.064 17.92 62.144 17.72 Q 61.724 17.96 61.224 18.46 Q 60.724 18.96 60.204 19.6 Q 59.684 20.24 59.234 20.94 Q 58.784 21.64 58.464 22.28 Q 58.204 22.78 58.094 23.2 Q 57.984 23.62 57.984 23.9 Q 57.984 24.46 58.304 24.46 Z M 110.804 24.46 Q 111.044 24.46 111.414 24.1 Q 111.784 23.74 112.244 22.94 Q 112.624 22.26 113.014 21.45 Q 113.404 20.64 113.744 19.86 Q 114.084 19.08 114.324 18.5 Q 114.564 17.92 114.644 17.72 Q 114.224 17.96 113.724 18.46 Q 113.224 18.96 112.704 19.6 Q 112.184 20.24 111.734 20.94 Q 111.284 21.64 110.964 22.28 Q 110.704 22.78 110.594 23.2 Q 110.484 23.62 110.484 23.9 Q 110.484 24.46 110.804 24.46 Z M 34.604 16.54 Q 34.824 16.54 35.124 16.27 Q 35.424 16 35.744 15.56 L 35.634 15.36 Q 35.524 15.16 35.524 14.76 Q 35.524 14.6 35.544 14.41 Q 35.564 14.22 35.644 14.02 Q 35.784 13.62 35.984 13.43 Q 36.184 13.24 36.384 13.24 Q 36.564 13.24 36.674 13.41 A 0.512 0.512 0 0 1 36.745 13.693 A 1.131 1.131 0 0 1 36.724 13.9 Q 37.004 13.28 37.184 12.69 Q 37.364 12.1 37.364 11.66 Q 37.364 11.32 37.234 11.11 Q 37.104 10.9 36.784 10.9 Q 36.504 10.9 36.144 11.25 Q 35.784 11.6 35.414 12.17 Q 35.044 12.74 34.734 13.4 Q 34.424 14.06 34.234 14.69 Q 34.044 15.32 34.044 15.78 Q 34.044 16.12 34.174 16.33 Q 34.304 16.54 34.604 16.54 Z M 71.064 5.98 Q 71.544 5.04 72.404 4.6 Q 73.264 4.16 74.244 4.16 Q 74.484 4.16 74.714 4.19 Q 74.944 4.22 75.184 4.26 Q 75.204 4.18 75.214 4.11 Q 75.224 4.04 75.224 3.96 Q 75.224 3.38 74.714 2.98 Q 74.204 2.58 73.444 2.58 Q 73.124 2.58 72.784 2.66 Q 72.444 2.74 72.104 2.92 Q 71.524 3.24 71.214 3.85 Q 70.904 4.46 70.904 5.12 Q 70.904 5.56 71.064 5.98 Z M 14.864 15.38 Q 16.064 15.38 17.344 15.1 Q 16.844 14.3 16.404 13.49 Q 15.964 12.68 15.444 11.92 Q 14.844 12.72 14.314 13.56 Q 13.784 14.4 13.204 15.22 Q 13.604 15.3 14.024 15.34 Q 14.444 15.38 14.864 15.38 Z M 88.664 8.62 L 88.424 9.08 Q 88.444 9.3 88.784 9.46 Q 89.124 9.62 89.864 9.62 Q 90.604 9.62 91.304 9.37 Q 92.004 9.12 92.624 8.68 Q 92.164 8.4 91.574 8.24 Q 90.984 8.08 90.264 8.08 Q 89.764 8.08 89.334 8.24 Q 88.904 8.4 88.664 8.62 Z M 98.164 14.2 Q 98.604 14.2 99.024 13.87 Q 99.444 13.54 99.784 13.03 Q 100.124 12.52 100.324 12 Q 100.404 11.78 100.404 11.5 Q 100.404 11.24 100.314 11.05 Q 100.224 10.86 100.004 10.86 A 1.147 1.147 0 0 0 99.224 11.31 Q 98.804 11.76 98.444 12.37 Q 98.084 12.98 97.904 13.48 Q 97.844 13.62 97.794 13.77 Q 97.744 13.92 97.704 14.08 Q 97.944 14.2 98.164 14.2 Z M 52.364 9.34 Q 52.084 9.34 51.894 9.15 Q 51.704 8.96 51.704 8.7 Q 51.704 8.36 51.934 8.12 Q 52.164 7.88 52.484 7.88 Q 52.764 7.88 52.964 8.08 Q 53.164 8.28 53.164 8.58 Q 53.164 8.9 52.924 9.12 Q 52.684 9.34 52.364 9.34 Z M 104.864 9.34 Q 104.584 9.34 104.394 9.15 Q 104.204 8.96 104.204 8.7 Q 104.204 8.36 104.434 8.12 Q 104.664 7.88 104.984 7.88 Q 105.264 7.88 105.464 8.08 Q 105.664 8.28 105.664 8.58 Q 105.664 8.9 105.424 9.12 Q 105.184 9.34 104.864 9.34 Z M 73.464 9.38 Q 73.704 9.38 73.854 9.32 Q 74.004 9.26 74.044 9.2 Q 74.044 9.18 74.054 9.18 Q 74.064 9.18 74.064 9.16 Q 74.064 9.1 73.924 9.04 Q 73.724 8.9 73.384 8.9 A 4.311 4.311 0 0 0 73.066 8.889 A 5.905 5.905 0 0 0 72.184 8.96 Q 72.344 9.06 72.524 9.14 Q 72.624 9.18 72.704 9.2 Q 72.784 9.22 72.844 9.26 Q 73.204 9.38 73.464 9.38 Z" />
    </g>
  </svg>-->

</svg>
